<?xml version="1.0" encoding="UTF-8"?>
<svg id="Layer_1" xmlns="http://www.w3.org/2000/svg" baseProfile="tiny" version="1.2" viewBox="0 0 64 64">
  <!-- Generator: Adobe Illustrator 29.5.0, SVG Export Plug-In . SVG Version: 2.1.0 Build 137)  -->
  <g>
    <path d="M2.43,41.95c.2.01.38.06.55.14.17.08.32.19.45.33.13.13.23.29.3.47.07.18.11.37.11.57s-.04.39-.11.56-.17.33-.3.46c-.13.13-.28.24-.45.32-.17.08-.36.12-.56.14h-.68v-2.97h.68ZM2.43,44.24c.1-.01.2-.04.29-.08.09-.04.17-.1.23-.17.07-.07.12-.15.16-.24.04-.09.06-.19.06-.29s-.02-.21-.06-.3c-.04-.1-.09-.18-.16-.25-.07-.07-.15-.13-.23-.18s-.19-.08-.29-.09v1.61Z"/>
    <path d="M5.9,42.65h-1.22v.44h.99v.68h-.99v.47h1.22v.68h-1.9v-2.95h1.9s0,.68,0,.68Z"/>
    <path d="M7.15,44.98c-.09,0-.19-.01-.28-.04-.09-.03-.18-.07-.26-.12-.14-.09-.26-.22-.34-.36-.08-.15-.12-.31-.12-.49h.68c0,.08.02.14.05.19.03.04.07.07.09.09.05.03.1.05.16.05.06,0,.11,0,.17-.03.04-.02.07-.04.09-.06.02-.02.04-.05.05-.07s.02-.05.02-.07c0-.02,0-.04,0-.05s0-.03,0-.05c0-.02-.01-.04-.02-.07-.01-.02-.03-.05-.05-.07-.02-.02-.05-.05-.09-.06-.03-.01-.06-.03-.09-.04-.03-.01-.07-.02-.11-.04-.07-.02-.14-.05-.21-.07-.07-.03-.15-.06-.22-.11-.09-.06-.17-.13-.24-.22-.06-.09-.11-.18-.14-.29-.03-.1-.04-.21-.03-.32,0-.11.04-.21.09-.31.05-.09.11-.17.18-.24.07-.07.15-.12.24-.16.09-.04.18-.06.29-.07.1,0,.21,0,.31.03.1.02.19.06.28.11.08.05.16.12.22.19.06.07.11.16.14.25.03.09.05.19.05.29h-.68c0-.06-.02-.1-.06-.13-.04-.02-.07-.04-.1-.05,0,0-.02,0-.04,0-.02,0-.04,0-.07,0-.03,0-.05.01-.08.02-.03.01-.05.04-.06.07-.02.04-.03.09-.01.14s.04.08.08.11c.04.02.08.04.12.06.05.02.09.03.15.05.05.01.09.03.14.04.05.02.09.03.14.06.18.08.31.2.42.35.1.15.15.33.15.52s-.05.36-.15.52c-.1.16-.24.27-.42.35-.07.03-.14.06-.21.07-.07.01-.14.02-.22.02Z"/>
    <path d="M9.12,44.92h-.68v-2.96h.68v2.96Z"/>
    <path d="M11.93,43.27v1.66h-.68v-.07c-.08.03-.15.05-.23.06-.08.01-.16.02-.24.02-.19,0-.38-.04-.56-.11-.18-.07-.34-.18-.49-.33-.14-.14-.25-.3-.32-.49-.07-.18-.11-.37-.11-.56s.04-.38.11-.56c.07-.18.18-.35.32-.49.15-.15.31-.25.49-.33.18-.07.37-.11.56-.11s.38.04.56.11c.18.07.35.18.49.33l-.48.48c-.08-.08-.17-.14-.27-.18-.1-.04-.2-.06-.3-.06s-.2.02-.3.06c-.1.04-.19.1-.27.18s-.14.17-.18.27c-.04.1-.06.2-.06.3s.02.2.06.3c.04.1.1.19.18.27.07.07.15.12.24.16.09.04.18.06.27.07.09,0,.18,0,.28-.03.09-.02.18-.06.25-.12v-.15h-.59v-.68h1.27Z"/>
    <path d="M13.96,41.96h.68v2.96h-.74l-.97-1.73v1.73h-.68v-2.95h.74l.96,1.72v-1.73Z"/>
    <path d="M16.59,44.57c0,.1-.03.18-.1.25-.07.07-.15.1-.25.1s-.18-.03-.25-.1c-.07-.07-.1-.15-.1-.25s.03-.18.1-.25c.07-.07.15-.1.25-.1s.18.03.25.1c.07.07.1.15.1.25Z"/>
    <path d="M19.11,41.96c.2,0,.4.04.58.12.18.08.34.18.47.32.13.13.24.29.32.47.08.18.12.37.12.58s-.04.4-.12.58c-.08.18-.18.34-.32.47-.13.13-.29.24-.47.32-.18.08-.37.12-.58.12s-.4-.04-.58-.12c-.18-.08-.34-.18-.47-.32-.13-.13-.24-.29-.32-.47-.08-.18-.12-.37-.12-.58s.04-.4.12-.58c.08-.18.18-.34.32-.47.13-.13.29-.24.47-.32s.37-.12.58-.12ZM19.11,44.24c.11,0,.21-.02.31-.06.1-.04.18-.1.25-.17.07-.07.13-.16.17-.25.04-.1.06-.2.06-.31s-.02-.21-.06-.31c-.04-.1-.1-.18-.17-.25-.07-.07-.16-.13-.25-.17-.1-.04-.2-.06-.31-.06s-.21.02-.31.06c-.1.04-.18.1-.25.17-.07.07-.13.16-.17.25-.04.1-.06.2-.06.31s.02.21.06.31c.04.1.1.18.17.25.07.07.16.13.25.17.1.04.2.06.31.06Z"/>
    <path d="M21.69,44.16s-.07,0-.1.01c-.03,0-.07,0-.11,0v.75h-.68v-2.95h.68c.17,0,.33.03.48.09.15.06.28.14.39.24s.2.22.26.35.09.27.09.42c0,.16-.03.31-.1.44-.07.13-.16.25-.28.35l.65,1.05h-.8l-.48-.77ZM21.48,43.5c.07,0,.14-.02.21-.04.07-.02.12-.05.17-.09.05-.04.09-.08.12-.13.03-.05.04-.1.04-.16s-.01-.11-.04-.16c-.03-.05-.07-.09-.12-.13-.05-.04-.11-.07-.17-.09-.07-.02-.14-.04-.21-.04v.84Z"/>
    <path d="M25.54,43.27v1.66h-.68v-.07c-.08.03-.15.05-.23.06-.08.01-.16.02-.24.02-.19,0-.38-.04-.56-.11-.18-.07-.34-.18-.49-.33-.14-.14-.25-.3-.32-.49-.07-.18-.11-.37-.11-.56s.04-.38.11-.56c.07-.18.18-.35.32-.49.15-.15.31-.25.49-.33.18-.07.37-.11.56-.11s.38.04.56.11c.18.07.35.18.49.33l-.48.48c-.08-.08-.17-.14-.27-.18-.1-.04-.2-.06-.3-.06s-.2.02-.3.06c-.1.04-.19.1-.27.18s-.14.17-.18.27c-.04.1-.06.2-.06.3s.02.2.06.3c.04.1.1.19.18.27.07.07.15.12.24.16.09.04.18.06.27.07.09,0,.18,0,.28-.03.09-.02.18-.06.25-.12v-.15h-.59v-.68h1.27Z"/>
    <path d="M27.56,44.92l-.12-.36h-.93l-.12.36h-.72l1.01-2.96h.64l.96,2.96h-.72ZM26.75,43.88h.48l-.23-.72-.25.72Z"/>
    <path d="M30.09,41.96h.68v2.96h-.74l-.97-1.73v1.73h-.68v-2.95h.74l.96,1.72v-1.73Z"/>
    <path d="M31.86,44.92h-.68v-2.96h.68v2.96Z"/>
    <path d="M34.62,44.92h-2.36l1.24-2.3h-1.08v-.68h2.22s-1.24,2.3-1.24,2.3h1.22v.68Z"/>
    <path d="M36.94,42.65h-1.22v.44h.99v.68h-.99v.47h1.22v.68h-1.9v-2.95h1.9s0,.68,0,.68Z"/>
    <path d="M38.89,44.57c0,.1-.03.18-.1.25-.07.07-.15.1-.25.1s-.18-.03-.25-.1c-.07-.07-.1-.15-.1-.25s.03-.18.1-.25c.07-.07.15-.1.25-.1s.18.03.25.1c.07.07.1.15.1.25Z"/>
    <path d="M41.79,41.95v.68h-.57v2.29h-.68v-2.29h-.56v-.68h1.81Z"/>
    <path d="M42.93,44.16s-.07,0-.1.01c-.03,0-.07,0-.11,0v.75h-.68v-2.95h.68c.17,0,.33.03.48.09.15.06.28.14.39.24s.2.22.26.35.09.27.09.42c0,.16-.03.31-.1.44-.07.13-.16.25-.28.35l.65,1.05h-.8l-.48-.77ZM42.72,43.5c.07,0,.14-.02.21-.04.07-.02.12-.05.17-.09.05-.04.09-.08.12-.13.03-.05.04-.1.04-.16s-.01-.11-.04-.16c-.03-.05-.07-.09-.12-.13-.05-.04-.11-.07-.17-.09-.07-.02-.14-.04-.21-.04v.84Z"/>
    <path d="M45.89,44.92l-.12-.36h-.93l-.12.36h-.72l1.01-2.96h.64l.96,2.96h-.72ZM45.07,43.88h.48l-.23-.72-.25.72Z"/>
    <path d="M48.42,41.96h.68v2.96h-.74l-.97-1.73v1.73h-.68v-2.95h.74l.96,1.72v-1.73Z"/>
    <path d="M50.32,44.98c-.09,0-.19-.01-.28-.04-.09-.03-.18-.07-.26-.12-.14-.09-.26-.22-.34-.36-.08-.15-.12-.31-.12-.49h.68c0,.08.02.14.05.19.03.04.07.07.09.09.05.03.1.05.16.05.06,0,.11,0,.17-.03.04-.02.07-.04.09-.06.02-.02.04-.05.05-.07s.02-.05.02-.07c0-.02,0-.04,0-.05s0-.03,0-.05c0-.02-.01-.04-.02-.07-.01-.02-.03-.05-.05-.07-.02-.02-.05-.05-.09-.06-.03-.01-.06-.03-.09-.04-.03-.01-.07-.02-.11-.04-.07-.02-.14-.05-.21-.07-.07-.03-.15-.06-.22-.11-.09-.06-.17-.13-.24-.22-.06-.09-.11-.18-.14-.29-.03-.1-.04-.21-.03-.32,0-.11.04-.21.09-.31.05-.09.11-.17.18-.24.07-.07.15-.12.24-.16.09-.04.18-.06.29-.07.1,0,.21,0,.31.03.1.02.19.06.28.11.08.05.16.12.22.19.06.07.11.16.14.25.03.09.05.19.05.29h-.68c0-.06-.02-.1-.06-.13-.04-.02-.07-.04-.1-.05,0,0-.02,0-.04,0-.02,0-.04,0-.07,0-.03,0-.05.01-.08.02-.03.01-.05.04-.06.07-.02.04-.03.09-.01.14s.04.08.08.11c.04.02.08.04.12.06.05.02.09.03.15.05.05.01.09.03.14.04.05.02.09.03.14.06.18.08.31.2.42.35.1.15.15.33.15.52s-.05.36-.15.52c-.1.16-.24.27-.42.35-.07.03-.14.06-.21.07-.07.01-.14.02-.22.02Z"/>
    <path d="M53.39,42.65h-1.1v.45h.87v.68h-.87v1.15h-.68v-2.96h1.79v.68Z"/>
    <path d="M55.07,41.96c.2,0,.4.04.58.12.18.08.34.18.47.32.13.13.24.29.32.47.08.18.12.37.12.58s-.04.4-.12.58c-.08.18-.18.34-.32.47-.13.13-.29.24-.47.32-.18.08-.37.12-.58.12s-.4-.04-.58-.12c-.18-.08-.34-.18-.47-.32-.13-.13-.24-.29-.32-.47-.08-.18-.12-.37-.12-.58s.04-.4.12-.58c.08-.18.18-.34.32-.47.13-.13.29-.24.47-.32s.37-.12.58-.12ZM55.07,44.24c.11,0,.21-.02.31-.06.1-.04.18-.1.25-.17.07-.07.13-.16.17-.25.04-.1.06-.2.06-.31s-.02-.21-.06-.31c-.04-.1-.1-.18-.17-.25-.07-.07-.16-.13-.25-.17-.1-.04-.2-.06-.31-.06s-.21.02-.31.06c-.1.04-.18.1-.25.17-.07.07-.13.16-.17.25-.04.1-.06.2-.06.31s.02.21.06.31c.04.1.1.18.17.25.07.07.16.13.25.17.1.04.2.06.31.06Z"/>
    <path d="M57.65,44.16s-.07,0-.1.01c-.03,0-.07,0-.11,0v.75h-.68v-2.95h.68c.17,0,.33.03.48.09.15.06.28.14.39.24s.2.22.26.35.09.27.09.42c0,.16-.03.31-.1.44-.07.13-.16.25-.28.35l.65,1.05h-.8l-.48-.77ZM57.44,43.5c.07,0,.14-.02.21-.04.07-.02.12-.05.17-.09.05-.04.09-.08.12-.13.03-.05.04-.1.04-.16s-.01-.11-.04-.16c-.03-.05-.07-.09-.12-.13-.05-.04-.11-.07-.17-.09-.07-.02-.14-.04-.21-.04v.84Z"/>
    <path d="M61.21,41.96h.7l.17,2.96h-.68l-.07-1.21-.41,1.21h-.68l-.44-1.26-.08,1.26h-.69l.19-2.96h.7l.65,1.85.63-1.85Z"/>
  </g>
  <g>
    <path d="M6.08,19.05c1.23.07,2.39.36,3.48.89,1.09.52,2.04,1.21,2.84,2.05.8.84,1.44,1.82,1.9,2.94.46,1.11.7,2.31.7,3.57s-.23,2.42-.68,3.51c-.46,1.09-1.09,2.05-1.89,2.88-.8.83-1.74,1.49-2.83,1.99-1.08.5-2.26.78-3.52.85H1.8v-18.7h4.28v.03ZM6.08,33.44c.66-.07,1.27-.24,1.84-.52.57-.28,1.06-.64,1.47-1.08.41-.44.74-.94.98-1.51.24-.57.35-1.17.35-1.82s-.12-1.29-.35-1.89c-.24-.6-.57-1.13-.99-1.6-.42-.47-.91-.85-1.47-1.14s-1.17-.48-1.82-.55v10.11Z"/>
    <path d="M21.23,35.52c0,.61-.22,1.13-.65,1.56s-.95.65-1.56.65-1.13-.22-1.56-.65c-.43-.43-.65-.95-.65-1.56s.22-1.13.65-1.56c.43-.43.95-.65,1.56-.65s1.13.22,1.56.65.65.95.65,1.56Z"/>
    <path d="M32.62,19.1c1.28,0,2.49.25,3.62.73,1.13.49,2.12,1.15,2.96,1.99s1.51,1.82,2,2.95c.49,1.13.73,2.34.73,3.62s-.24,2.49-.73,3.62c-.49,1.13-1.16,2.12-2,2.95-.84.84-1.83,1.5-2.96,1.99-1.13.49-2.34.73-3.62.73s-2.49-.24-3.62-.73c-1.13-.49-2.11-1.15-2.95-1.99-.84-.84-1.5-1.82-1.99-2.95-.49-1.13-.73-2.34-.73-3.62s.24-2.49.73-3.62c.49-1.13,1.15-2.12,1.99-2.95.83-.84,1.82-1.5,2.95-1.99,1.13-.49,2.34-.73,3.62-.73ZM32.63,33.41c.69,0,1.34-.13,1.95-.39.61-.26,1.14-.62,1.6-1.08.46-.46.81-.99,1.08-1.6.26-.61.39-1.26.39-1.95s-.13-1.34-.39-1.95c-.26-.61-.62-1.14-1.08-1.6s-.99-.81-1.6-1.08c-.61-.26-1.26-.39-1.95-.39s-1.34.13-1.95.39c-.61.26-1.14.62-1.6,1.08s-.82.99-1.08,1.6c-.26.61-.39,1.26-.39,1.95s.13,1.34.39,1.95c.26.61.62,1.14,1.08,1.6.46.46.99.82,1.6,1.08.61.26,1.26.39,1.95.39Z"/>
    <path d="M48.47,35.52c0,.61-.22,1.13-.65,1.56s-.95.65-1.56.65-1.13-.22-1.56-.65c-.43-.43-.65-.95-.65-1.56s.22-1.13.65-1.56c.43-.43.95-.65,1.56-.65s1.13.22,1.56.65.65.95.65,1.56Z"/>
    <path d="M62.25,19.05v4.28h-3.57v14.39h-4.28v-14.39h-3.55v-4.28h11.4Z"/>
  </g>
</svg>